<?xml version="1.0" encoding="UTF-8"?>
<svg id="Layer_1" data-name="Layer 1" xmlns="http://www.w3.org/2000/svg" viewBox="0 0 589.5 74.4">
  <defs>
    <style>
      .cls-1 {
        fill: #fff;
      }
    </style>
  </defs>
  <path class="cls-1" d="M0,1.5h10l24.7,62.6L59.3,1.5h10v71.4h-6.8V11.2h-.2l-24.4,61.7h-6.4L7,11.2h-.2v61.7H0V1.5Z"/>
  <path class="cls-1" d="M113.4,0c22.4,0,33.6,17.7,33.6,37.2s-11.2,37.2-33.6,37.2-33.7-17.7-33.7-37.2S90.9,0,113.4,0ZM113.4,68.6c18.8,0,26.8-15.8,26.8-31.4s-8-31.4-26.8-31.4-26.9,15.8-26.9,31.4,8,31.4,26.9,31.4Z"/>
  <path class="cls-1" d="M157.6,1.5h32.7c11.8,0,21.7,5.7,21.7,18.6,0,9-4.7,16.4-13.9,18.2v.2c9.3,1.2,12,7.6,12.5,16.1.3,4.9.3,14.7,3.3,18.3h-7.5c-1.7-2.8-1.7-8.1-1.9-11.1-.6-10-1.4-21.1-14.3-20.6h-25.8v31.7h-6.8V1.5ZM164.4,35.4h25.4c8.3,0,15.4-5.2,15.4-13.9s-5.2-14.2-15.4-14.2h-25.4v28.1Z"/>
  <path class="cls-1" d="M224.3,1.5h32.7c11.8,0,21.7,5.7,21.7,18.6,0,9-4.7,16.4-13.9,18.2v.2c9.3,1.2,12,7.6,12.5,16.1.3,4.9.3,14.7,3.3,18.3h-7.5c-1.7-2.8-1.7-8.1-1.9-11.1-.6-10-1.4-21.1-14.3-20.6h-25.8v31.7h-6.8V1.5ZM231.1,35.4h25.4c8.3,0,15.4-5.2,15.4-13.9s-5.2-14.2-15.4-14.2h-25.4v28.1Z"/>
  <path class="cls-1" d="M320.9,0c22.4,0,33.6,17.7,33.6,37.2s-11.2,37.2-33.6,37.2-33.7-17.7-33.7-37.2S298.4,0,320.9,0ZM320.9,68.6c18.8,0,26.8-15.8,26.8-31.4s-8-31.4-26.8-31.4-26.9,15.8-26.9,31.4,8,31.4,26.9,31.4Z"/>
  <path class="cls-1" d="M357.9,1.5h7.3l16.2,62.5h.2L399,1.5h8.5l17.5,62.5h.2L441.5,1.5h6.8l-19.7,71.4h-7.2l-18.1-63.9h-.2l-18,63.9h-7.4L357.9,1.5Z"/>
  <path class="cls-1" d="M447.9,1.5h7.3l23.2,63.9h.2L501.6,1.5h7.2l-26.5,71.4h-7.9L447.9,1.5Z"/>
  <path class="cls-1" d="M515.6,1.5h6.8v71.4h-6.8V1.5Z"/>
  <path class="cls-1" d="M540.49,49.4c-.3,14.7,10.3,19.2,23.3,19.2,7.5,0,18.9-4.1,18.9-14.5,0-8.1-8.1-11.3-14.7-12.9l-15.9-3.9c-8.4-2.1-16.1-6.1-16.1-17.2,0-7,4.5-20.1,24.6-20.1,14.1,0,26.5,7.6,26.4,22.2h-6.8c-.4-10.9-9.4-16.4-19.5-16.4-9.3,0-17.9,3.6-17.9,14.2,0,6.7,5,9.5,10.8,10.9l17.4,4.3c10.1,2.7,18.5,7.1,18.5,18.8,0,4.9-2,20.4-27.3,20.4-16.9,0-29.3-7.6-28.5-25h6.8Z"/>
</svg>