<?xml version="1.0" encoding="UTF-8"?>
<svg id="Layer_1" data-name="Layer 1" xmlns="http://www.w3.org/2000/svg" viewBox="0 0 686.99 314.4">
  <defs>
    <style>
      .cls-1 {
        fill: #fff;
      }
    </style>
  </defs>
  <path class="cls-1" d="M46.05,1.5h10l24.7,62.6L105.35,1.5h10v71.4h-6.8V11.2h-.2l-24.4,61.7h-6.4L53.05,11.2h-.2v61.7h-6.8V1.5Z"/>
  <path class="cls-1" d="M159.45,0c22.4,0,33.6,17.7,33.6,37.2s-11.2,37.2-33.6,37.2-33.7-17.7-33.7-37.2S136.95,0,159.45,0ZM159.45,68.6c18.8,0,26.8-15.8,26.8-31.4s-8-31.4-26.8-31.4-26.9,15.8-26.9,31.4,8,31.4,26.9,31.4Z"/>
  <path class="cls-1" d="M203.65,1.5h32.7c11.8,0,21.7,5.7,21.7,18.6,0,9-4.7,16.4-13.9,18.2v.2c9.3,1.2,12,7.6,12.5,16.1.3,4.9.3,14.7,3.3,18.3h-7.5c-1.7-2.8-1.7-8.1-1.9-11.1-.6-10-1.4-21.1-14.3-20.6h-25.8v31.7h-6.8V1.5ZM210.45,35.4h25.4c8.3,0,15.4-5.2,15.4-13.9s-5.2-14.2-15.4-14.2h-25.4v28.1Z"/>
  <path class="cls-1" d="M270.35,1.5h32.7c11.8,0,21.7,5.7,21.7,18.6,0,9-4.7,16.4-13.9,18.2v.2c9.3,1.2,12,7.6,12.5,16.1.3,4.9.3,14.7,3.3,18.3h-7.5c-1.7-2.8-1.7-8.1-1.9-11.1-.6-10-1.4-21.1-14.3-20.6h-25.8v31.7h-6.8V1.5ZM277.15,35.4h25.4c8.3,0,15.4-5.2,15.4-13.9s-5.2-14.2-15.4-14.2h-25.4v28.1Z"/>
  <path class="cls-1" d="M366.95,0c22.4,0,33.6,17.7,33.6,37.2s-11.2,37.2-33.6,37.2-33.7-17.7-33.7-37.2S344.45,0,366.95,0ZM366.95,68.6c18.8,0,26.8-15.8,26.8-31.4s-8-31.4-26.8-31.4-26.9,15.8-26.9,31.4,8,31.4,26.9,31.4Z"/>
  <path class="cls-1" d="M403.94,1.5h7.3l16.2,62.5h.2L445.05,1.5h8.5l17.5,62.5h.2L487.55,1.5h6.8l-19.7,71.4h-7.2l-18.1-63.9h-.2l-18,63.9h-7.4L403.94,1.5Z"/>
  <path class="cls-1" d="M502.34,1.5h6.8v71.4h-6.8V1.5Z"/>
  <path class="cls-1" d="M523.94,1.5h7.6l41.6,60.4h.2V1.5h6.8v71.4h-7.6l-41.6-60.4h-.2v60.4h-6.8V1.5Z"/>
  <path class="cls-1" d="M594.44,1.5h24.7c21.5.5,32.8,12.3,32.8,35.7s-11.3,35.2-32.8,35.7h-24.7V1.5ZM601.24,67.1h14.5c20.5.1,29.4-8.6,29.4-29.9s-8.9-30-29.4-29.9h-14.5v59.8Z"/>
  <path class="cls-1" d="M0,121.5h7.3l23.2,63.9h.2l23-63.9h7.2l-26.5,71.4h-7.9L0,121.5Z"/>
  <path class="cls-1" d="M67.7,121.5h6.8v71.4h-6.8v-71.4Z"/>
  <path class="cls-1" d="M92.6,169.4c-.3,14.7,10.3,19.2,23.3,19.2,7.5,0,18.9-4.1,18.9-14.5,0-8.1-8.1-11.3-14.7-12.9l-15.9-3.9c-8.4-2.1-16.1-6.1-16.1-17.2,0-7,4.5-20.1,24.6-20.1,14.1,0,26.5,7.6,26.4,22.2h-6.8c-.4-10.9-9.4-16.4-19.5-16.4-9.3,0-17.9,3.6-17.9,14.2,0,6.7,5,9.5,10.8,10.9l17.4,4.3c10.1,2.7,18.5,7.1,18.5,18.8,0,4.9-2,20.4-27.3,20.4-16.9,0-29.3-7.6-28.5-25h6.8Z"/>
  <path class="cls-1" d="M151.7,121.5h6.8v44.2c-.1,16.6,7.8,22.9,20.9,22.9s21.1-6.3,21-22.9v-44.2h6.8v45.7c0,14.7-7.9,27.2-27.8,27.2s-27.7-12.5-27.7-27.2v-45.7Z"/>
  <path class="cls-1" d="M241.8,121.5h7.6l28,71.4h-7.3l-8.7-22.2h-32.5l-8.6,22.2h-7.3l28.8-71.4ZM231,164.9h28.1l-13.8-36.6-14.3,36.6Z"/>
  <path class="cls-1" d="M283.9,121.5h6.8v65.6h40v5.8h-46.8v-71.4Z"/>
  <path class="cls-1" d="M338.1,121.5h6.8v71.4h-6.8v-71.4Z"/>
  <path class="cls-1" d="M362.99,169.4c-.3,14.7,10.3,19.2,23.3,19.2,7.5,0,18.9-4.1,18.9-14.5,0-8.1-8.1-11.3-14.7-12.9l-15.9-3.9c-8.4-2.1-16.1-6.1-16.1-17.2,0-7,4.5-20.1,24.6-20.1,14.1,0,26.5,7.6,26.4,22.2h-6.8c-.4-10.9-9.4-16.4-19.5-16.4-9.3,0-17.9,3.6-17.9,14.2,0,6.7,5,9.5,10.8,10.9l17.4,4.3c10.1,2.7,18.5,7.1,18.5,18.8,0,4.9-2,20.4-27.3,20.4-16.9,0-29.3-7.6-28.5-25h6.8Z"/>
  <path class="cls-1" d="M443.69,121.5h7.6l28,71.4h-7.3l-8.7-22.2h-32.5l-8.6,22.2h-7.3l28.8-71.4ZM432.89,164.9h28.1l-13.8-36.6-14.3,36.6Z"/>
  <path class="cls-1" d="M471.29,121.5h56.6v5.8h-24.9v65.6h-6.8v-65.6h-24.9v-5.8Z"/>
  <path class="cls-1" d="M535.09,121.5h6.8v71.4h-6.8v-71.4Z"/>
  <path class="cls-1" d="M586.69,120c22.4,0,33.6,17.7,33.6,37.2s-11.2,37.2-33.6,37.2-33.7-17.7-33.7-37.2,11.2-37.2,33.7-37.2ZM586.69,188.6c18.8,0,26.8-15.8,26.8-31.4s-8-31.4-26.8-31.4-26.9,15.8-26.9,31.4,8,31.4,26.9,31.4Z"/>
  <path class="cls-1" d="M630.79,121.5h7.6l41.6,60.4h.2v-60.4h6.8v71.4h-7.6l-41.6-60.4h-.2v60.4h-6.8v-71.4Z"/>
  <path class="cls-1" d="M135.05,241.5h31.7c12.8,0,21.2,7.5,21.2,20.4s-8.4,20.4-21.2,20.4h-24.9v30.6h-6.8v-71.4ZM141.85,276.5h23.4c9.4,0,15.9-4.8,15.9-14.6s-6.5-14.6-15.9-14.6h-23.4v29.2Z"/>
  <path class="cls-1" d="M198.05,241.5h32.7c11.8,0,21.7,5.7,21.7,18.6,0,9-4.7,16.4-13.9,18.2v.2c9.3,1.2,12,7.6,12.5,16.1.3,4.9.3,14.7,3.3,18.3h-7.5c-1.7-2.8-1.7-8.1-1.9-11.1-.6-10-1.4-21.1-14.3-20.6h-25.8v31.7h-6.8v-71.4ZM204.85,275.4h25.4c8.3,0,15.4-5.2,15.4-13.9s-5.2-14.2-15.4-14.2h-25.4v28.1Z"/>
  <path class="cls-1" d="M294.65,240c22.4,0,33.6,17.7,33.6,37.2s-11.2,37.2-33.6,37.2-33.7-17.7-33.7-37.2,11.2-37.2,33.7-37.2ZM294.65,308.6c18.8,0,26.8-15.8,26.8-31.4s-8-31.4-26.8-31.4-26.9,15.8-26.9,31.4,8,31.4,26.9,31.4Z"/>
  <path class="cls-1" d="M367.65,241.5h6.8v51.5c0,14.5-5.4,21.4-20.8,21.4-16.4,0-20-12-19.9-24.4h6.8c.2,6.1-.4,18.6,13.7,18.6,10.6,0,13.4-5.4,13.4-18.5v-48.6Z"/>
  <path class="cls-1" d="M388.84,241.5h49.3v5.8h-42.5v25.8h39.8v5.8h-39.8v28.2h43v5.8h-49.8v-71.4Z"/>
  <path class="cls-1" d="M500.35,263.1c-2.4-11-11.5-17.3-21.9-17.3-18.9,0-26.9,15.8-26.9,31.4s8,31.4,26.9,31.4c13.2,0,21.6-10.2,22.9-22.9h6.8c-1.9,17.5-13,28.7-29.7,28.7-22.5,0-33.7-17.7-33.7-37.2s11.2-37.2,33.7-37.2c13.5,0,26.9,8.1,28.7,23.1h-6.8Z"/>
  <path class="cls-1" d="M510.84,241.5h56.6v5.8h-24.9v65.6h-6.8v-65.6h-24.9v-5.8Z"/>
</svg>