<?xml version="1.0" encoding="UTF-8"?>
<svg id="Layer_1" xmlns="http://www.w3.org/2000/svg" version="1.1" viewBox="0 0 49.89 32">
  <!-- Generator: Adobe Illustrator 30.6.0, SVG Export Plug-In . SVG Version: 2.1.4 Build 109)  -->
  <defs>
    <style>
      .st0 {
        fill: #fff;
      }
    </style>
  </defs>
  <path class="st0" d="M49.01,15.03c.32-.21.54-.47.68-.77.14-.31.21-.69.21-1.15,0-.6-.18-1.1-.55-1.49-1.09,3.2-3.73,6.59-7.51,9.7h3.04c1.89,0,3.17-.43,3.87-1.28.48-.58.73-1.38.73-2.38,0-.56-.16-1.01-.47-1.32-.31-.32-.73-.55-1.27-.7v-.15c.49-.07.91-.22,1.27-.46h0Z"/>
  <path class="st0" d="M8,10.7H2.26L.24,21.32c.85-3.45,3.62-7.21,7.76-10.62h0Z"/>
  <path class="st0" d="M25.8,20.35h-5.63l-.67.97h-6.55l1.82-2.54H6.64l-.49,2.54H.24c-.33,1.74-.37,3.4.25,4.9,2.8,6.8,16.01,7.74,29.51,2.1,4.59-1.92,8.62-4.35,11.84-7h-15.73l-.31-.97h0Z"/>
  <path class="st0" d="M23.91,14.82l-1.85,2.72h2.83l-.87-2.72h-.1Z"/>
  <path class="st0" d="M16.43,14.45H7.47l-.24,1.22h8.47l-.48,2.47,5.31-7.44h8.19l3.31,9.89,1.9-9.89h12.44c1.21,0,2.1.22,2.67.65.11.08.21.17.29.27.7-2.07.75-4.06.02-5.83-2.8-6.8-16.01-7.74-29.51-2.1-4.6,1.92-8.64,4.36-11.86,7.01h9.15l-.71,3.75h0Z"/>
  <path class="st0" d="M42.74,13.54h-3.42l-.27,1.37h3.42c.36,0,.62-.1.79-.31.14-.17.21-.34.21-.51,0-.37-.24-.55-.73-.55h0Z"/>
  <path class="st0" d="M42.22,17.15h-3.6l-.28,1.46h3.58c.39,0,.68-.11.84-.33.06-.08.11-.17.15-.27.04-.1.06-.19.06-.27,0-.4-.25-.59-.76-.59Z"/>
</svg>