<?xml version="1.0" encoding="UTF-8"?>
<svg id="Layer_1" data-name="Layer 1" xmlns="http://www.w3.org/2000/svg" viewBox="0 0 714.5 315.8">
  <defs>
    <style>
      .cls-1 {
        fill: #fff;
      }
    </style>
  </defs>
  <path class="cls-1" d="M51.45,73.9V1.9h10.4l23.6,63.5h.2L108.85,1.9h10.3v72h-6.8V9.7h-.2l-23.6,64.2h-6.4L58.45,9.7h-.2v64.2h-6.8Z"/>
  <path class="cls-1" d="M165.45,0c22.5,0,33.9,16.9,33.9,38s-11.4,37.8-33.6,37.8-33.5-17.1-33.5-37.8c-.1-21,11.7-38,33.2-38ZM192.55,38c0-20-10.3-32.2-26.9-32.2-18.5,0-26.6,15.5-26.6,32.2s8,32,26.8,32,26.7-15.2,26.7-32Z"/>
  <path class="cls-1" d="M219.55,41.2v32.7h-6.8V1.9h28.2c15.8,0,24.5,5.6,24.5,18.9,0,9.1-3.4,13.9-11.7,17.6,8.5,2.9,9,11.9,9.2,19.5.3,10.9,1.2,13.9,3,15.3v.7h-7.5c-2.8-4.9-2.1-18.4-3.2-23.9-1.6-7.8-7.5-8.8-14.3-8.8h-21.4ZM240.75,35.4c10.1,0,17.9-4.2,17.9-14.3,0-10.8-8.4-13.4-17.5-13.4h-21.6v27.7h21.2Z"/>
  <path class="cls-1" d="M286.25,41.2v32.7h-6.8V1.9h28.2c15.8,0,24.5,5.6,24.5,18.9,0,9.1-3.4,13.9-11.7,17.6,8.5,2.9,9,11.9,9.2,19.5.3,10.9,1.2,13.9,3,15.3v.7h-7.5c-2.8-4.9-2.1-18.4-3.2-23.9-1.6-7.8-7.5-8.8-14.3-8.8h-21.4ZM307.45,35.4c10.1,0,17.9-4.2,17.9-14.3,0-10.8-8.4-13.4-17.5-13.4h-21.6v27.7h21.2Z"/>
  <path class="cls-1" d="M376.65,0c22.5,0,33.9,16.9,33.9,38s-11.4,37.8-33.6,37.8-33.5-17.1-33.5-37.8c-.1-21,11.7-38,33.2-38ZM403.75,38c0-20-10.3-32.2-26.9-32.2-18.5,0-26.6,15.5-26.6,32.2s8,32,26.8,32,26.7-15.2,26.7-32Z"/>
  <path class="cls-1" d="M480.55,64.3h.2l15.7-62.4h7l-18.9,72h-7.5l-16.7-63.6h-.2l-16.7,63.6h-7.5L417.35,1.9h6.8l15.5,62.4h.2L456.55,1.9h7.6l16.4,62.4Z"/>
  <path class="cls-1" d="M515.35,73.9V1.9h6.8v72h-6.8Z"/>
  <path class="cls-1" d="M547.55,11.1h-.2v62.8h-6.8V1.9h7.7l41.6,62.9h.2V1.9h6.8v72h-7.9l-41.4-62.8Z"/>
  <path class="cls-1" d="M612.94,73.9V1.9h24.6c8,0,15.5.5,22.2,5.4,9.5,6.9,12,20.9,12,30.5s-2.1,20.1-8.7,27.3c-6.6,7.4-16,8.8-25.5,8.8h-24.6ZM619.75,68.1h16.3c6.1,0,11.4-.4,16.9-3.3,9.6-4.9,12-17.2,12-27,0-10.5-2.3-22-12.4-27.4-4.3-2.3-10.5-2.7-16.5-2.7h-16.3v60.4Z"/>
  <path class="cls-1" d="M0,121.9h7.1l21.7,64,21.6-64h7.1l-25,72h-7.5L0,121.9Z"/>
  <path class="cls-1" d="M69.8,193.9v-72h6.8v72h-6.8Z"/>
  <path class="cls-1" d="M98,172.4c1.1,12.9,9.7,17.6,20.7,17.6,12.9,0,18.3-7,18.3-14.9,0-22.3-43.9-7.5-43.9-35.8,0-10,8.3-19.3,24.4-19.3s24.3,9.8,24.2,21.5h-6.5c0-11-8.5-15.7-17.7-15.7-13.8,0-18.8,8.5-17.6,15.9,3.1,18.6,43.9,5.2,43.9,33.1,0,13.2-9.7,21-26.3,21-15,0-26.1-7.8-26.1-23.4h6.6Z"/>
  <path class="cls-1" d="M156.4,121.9h6.8v42.9c0,17.8,6.4,25.2,21.1,25.2,15.5,0,21.1-8.2,21.1-25.2v-42.9h6.8v44.9c0,18.7-9.3,29-27.9,29s-27.9-10.6-27.9-29v-44.9Z"/>
  <path class="cls-1" d="M221.9,193.9l28.3-72h7.7l27.6,72h-7l-8.3-22.6h-32.8l-8.5,22.6h-7ZM239.7,165.5h28.2l-14.1-37.8-14.1,37.8Z"/>
  <path class="cls-1" d="M295.2,193.9v-72h6.8v66.2h38.6v5.8h-45.4Z"/>
  <path class="cls-1" d="M353.2,193.9v-72h6.8v72h-6.8Z"/>
  <path class="cls-1" d="M381.4,172.4c1.1,12.9,9.7,17.6,20.7,17.6,12.9,0,18.3-7,18.3-14.9,0-22.3-43.9-7.5-43.9-35.8,0-10,8.3-19.3,24.4-19.3s24.3,9.8,24.2,21.5h-6.5c0-11-8.5-15.7-17.7-15.7-13.8,0-18.8,8.5-17.6,15.9,3.1,18.6,43.9,5.2,43.9,33.1,0,13.2-9.7,21-26.3,21-15,0-26.1-7.8-26.1-23.4h6.6Z"/>
  <path class="cls-1" d="M433.09,193.9l28.3-72h7.7l27.6,72h-7l-8.3-22.6h-32.8l-8.5,22.6h-7ZM450.89,165.5h28.2l-14.1-37.8-14.1,37.8Z"/>
  <path class="cls-1" d="M490.69,121.9h52.4v5.8h-22.8v66.2h-6.8v-66.2h-22.8v-5.8Z"/>
  <path class="cls-1" d="M555.19,193.9v-72h6.8v72h-6.8Z"/>
  <path class="cls-1" d="M611,120c22.5,0,33.9,16.9,33.9,38s-11.4,37.8-33.6,37.8-33.5-17.1-33.5-37.8c-.1-21,11.7-38,33.2-38ZM638.1,158c0-20-10.3-32.2-26.9-32.2-18.5,0-26.6,15.5-26.6,32.2s8,32,26.8,32,26.7-15.2,26.7-32Z"/>
  <path class="cls-1" d="M665.19,131.1h-.2v62.8h-6.8v-72h7.7l41.6,62.9h.2v-62.9h6.8v72h-7.9l-41.4-62.8Z"/>
  <path class="cls-1" d="M145.9,313.9v-72h26.3c18.7,0,23.5,9.3,23.5,20.1,0,16.1-14.3,20.1-27.6,20.1h-15.4v31.8h-6.8ZM168.3,276.3c12.7,0,20.6-2.6,20.6-14.8,0-9-5.8-13.8-18.6-13.8h-17.6v28.6h15.6Z"/>
  <path class="cls-1" d="M214,281.2v32.7h-6.8v-72h28.2c15.8,0,24.5,5.6,24.5,18.9,0,9.1-3.4,13.9-11.7,17.6,8.5,2.9,9,11.9,9.2,19.5.3,10.9,1.2,13.9,3,15.3v.7h-7.5c-2.8-4.9-2.1-18.4-3.2-23.9-1.6-7.8-7.5-8.8-14.3-8.8h-21.4ZM235.2,275.4c10.1,0,17.9-4.2,17.9-14.3,0-10.8-8.4-13.4-17.5-13.4h-21.6v27.7h21.2Z"/>
  <path class="cls-1" d="M304.4,240c22.5,0,33.9,16.9,33.9,38s-11.4,37.8-33.6,37.8-33.5-17.1-33.5-37.8c-.1-21,11.7-38,33.2-38ZM331.5,278c0-20-10.3-32.2-26.9-32.2-18.5,0-26.6,15.5-26.6,32.2s8,32,26.8,32,26.7-15.2,26.7-32Z"/>
  <path class="cls-1" d="M352.7,291.1c-.1,9,.4,18.5,13,18.5,9.3,0,12.7-5.5,12.7-15.6v-52.1h6.8v52.3c0,13.9-6.4,21.6-20.3,21.6-16.2,0-19-11.9-19-24.7h6.8Z"/>
  <path class="cls-1" d="M401.8,313.9v-72h47.9v5.8h-41.1v26h37.1v5.8h-37.1v28.6h42.1v5.8h-48.9Z"/>
  <path class="cls-1" d="M514,262.8c-2.8-12.3-10.4-17-22.7-17-17.4,0-24.9,14.9-24.9,31.9,0,16.1,5.9,32.3,25.5,32.3,12.4,0,20.1-8.4,22.8-19.8h7.1c-3.2,13.9-11.9,25.6-31.2,25.6-22.2,0-31-17.5-31-37.9,0-27.5,14.4-37.9,33.5-37.9,14.8,0,25.6,7.9,27.9,22.8h-7Z"/>
  <path class="cls-1" d="M528.59,241.9h52.4v5.8h-22.8v66.2h-6.8v-66.2h-22.8v-5.8Z"/>
</svg>