<?xml version="1.0" encoding="UTF-8"?>
<svg id="Layer_1" xmlns="http://www.w3.org/2000/svg" version="1.1" viewBox="0 0 34.14 34.1">
  <!-- Generator: Adobe Illustrator 30.6.0, SVG Export Plug-In . SVG Version: 2.1.4 Build 109)  -->
  <defs>
    <style>
      .st0 {
        fill: #f97316;
      }

      .st1 {
        fill: #fb923c;
      }

      .st2 {
        fill: #f4f4f5;
      }
    </style>
  </defs>
  <path d="M9.32,34.1c-.13,0-.27,0-.4-.02-.31-.04-.61-.1-.94-.21-.59-.19-1.09-.46-1.45-.67-.8-.46-1.62-1.03-2.48-1.74-.38-.31-.76-.65-1.11-.99l-.29-.29c-.21-.19-.4-.4-.55-.63-.27-.42-.5-.97-.52-1.68-.02-.23-.04-.46-.04-.71,0-.5.02-1.05.1-1.57.15-1.09.5-2.06.78-2.79.02-.06.04-.13.06-.19-.08-.19-.15-.4-.23-.61-.38-1.09-.63-2.31-.76-3.53-.13-1.28-.08-2.58.1-3.86.04-.27.08-.55.15-.8-.5-.73-1.13-1.78-1.53-3v-.02c-.08-.25-.29-.88-.17-1.68.04-.29.1-.59.21-.9.19-.59.46-1.07.67-1.43.46-.8,1.03-1.6,1.72-2.46.31-.38.63-.76.97-1.09l.29-.29c.15-.17.31-.31.5-.44.42-.31,1.01-.59,1.8-.61.25-.02.52-.04.8-.04h.02c.52,0,1.09.04,1.64.13.84.13,1.6.36,2.27.61.44-.19.9-.36,1.39-.52,1.13-.38,2.35-.63,3.57-.71,1.28-.1,2.58-.04,3.82.17.29.04.59.1.88.17.99-.67,1.89-1.15,2.83-1.45h.02c.21-.08.67-.23,1.28-.23.13,0,.27,0,.4.02.31.04.61.1.94.21.59.19,1.09.46,1.45.67.8.46,1.62,1.03,2.48,1.74.38.31.76.65,1.11.99l.29.29c.15.13.29.27.4.44.38.48.67,1.18.69,2.14.02.34.02.69,0,1.05-.04.78-.15,1.51-.34,2.18-.15.5-.31,1.01-.5,1.51.38.94.65,1.91.84,2.9.38,2.08.34,4.22-.13,6.28.27.4.52.78.73,1.15.36.63.65,1.28.86,1.95.08.25.27.88.15,1.72-.04.29-.13.57-.23.88-.38,1.07-.97,1.95-1.49,2.69-.57.8-1.22,1.57-1.89,2.29l-.25.25c-.15.17-.31.31-.5.46-.42.31-1.01.57-1.8.61-.25.02-.52.04-.8.04h-.02c-.57,0-1.13-.04-1.72-.15-.94-.15-1.78-.44-2.54-.73-.4.17-.82.31-1.22.44-1.18.36-2.41.59-3.65.65-1.28.08-2.58-.02-3.84-.25-.15-.02-.31-.06-.46-.08-1.09.78-2.06,1.28-3.06,1.62h-.02c-.21-.02-.67.15-1.28.15h0ZM5.16,28.14l2.22.78c.19-.55.21-1.13.08-1.68,0,.04,0,.1.02.15,0,.06.02.15.02.23-.02-.42-.17-.97-.55-1.47-.15-.19-.31-.36-.5-.5l.1.08.19.19c-.17-.17-.36-.34-.57-.48l-1.03,2.71h0ZM25.96,27.16c-.17.17-.34.34-.48.57l2.5.97v-2.33h0c-.23,0-.46.02-.67.08h.13c.06,0,.15-.02.23-.02-.38.02-.88.15-1.34.44-.25.17-.46.36-.65.61l.08-.1.21-.21h0ZM7.51,26.61c.1.08.21.17.31.27.55.46,1.05.82,1.51,1.09.29-.15.63-.36.99-.63.1-.06.19-.15.29-.23.06-.04.1-.1.17-.15.02-.02.06-.06.08-.08l1.3-1.32,1.76.61c.06.02.13.04.17.06.38.13.76.21,1.13.29.78.15,1.6.21,2.39.15.76-.04,1.53-.19,2.25-.4.36-.1.71-.23,1.05-.4.17-.06.34-.15.48-.23.42-.21.9-.34,1.39-.34.76,0,1.32.27,1.6.42.08.04.17.08.27.1.52.21,1.13.46,1.68.55.08.02.19.02.27.04.31-.36.61-.73.88-1.11.17-.23.34-.46.48-.69-.02-.04-.04-.08-.08-.15-.15-.25-.31-.5-.52-.82-.06-.1-.15-.19-.23-.29-.04-.04-.06-.08-.1-.13-.86-.84-1.15-2.04-.76-3.17.02-.06.04-.13.06-.17.48-1.51.57-3.13.29-4.68-.15-.73-.36-1.47-.67-2.16-.02-.06-.06-.13-.08-.19-.69-1.28-.4-2.37-.15-2.9.1-.21.19-.44.27-.65.17-.4.29-.82.42-1.2.04-.19.08-.38.1-.61-.1-.08-.21-.17-.31-.27-.57-.46-1.05-.82-1.51-1.09-.29.17-.63.38-1.01.63-.1.08-.21.17-.31.25-.02.02-.06.04-.08.08-.57.55-1.32.84-2.1.84-.38,0-.73-.06-1.09-.21-.08-.02-.17-.06-.25-.08-.38-.1-.76-.21-1.15-.27-.78-.13-1.6-.17-2.39-.1-.76.06-1.51.21-2.22.44-.36.1-.69.25-1.03.4-.17.06-.31.15-.48.23l-.08.04c-.44.25-.97.38-1.47.38-.46,0-.92-.1-1.36-.31-.1-.04-.19-.08-.29-.13-.5-.21-1.11-.44-1.64-.5-.08-.02-.17-.02-.23-.04-.08.1-.17.21-.25.29-.46.57-.82,1.05-1.09,1.53.15.29.36.61.61.99.06.1.15.21.23.29.04.06.1.1.15.17l1.22,1.28-.52,1.68c-.04.1-.06.21-.1.31-.1.38-.19.78-.25,1.18-.13.8-.15,1.6-.06,2.41.06.76.23,1.51.48,2.22.13.36.27.69.42,1.03l.06.13c.44.9.44,1.91-.02,2.81-.04.08-.08.17-.1.25-.08.21-.19.42-.27.63-.17.46-.38,1.01-.44,1.49,0,.02-.02.08-.02.13h0ZM27.26,8.14c.17.17.36.34.59.5l1.03-2.71-2.22-.78c-.19.55-.21,1.13-.08,1.68v-.36c0,.31.1.84.44,1.34.17.23.36.44.59.63l-.1-.08-.23-.23h0ZM6.15,5.52v2.33c.23,0,.46-.02.67-.08h-.13c-.06,0-.15.02-.23.02.38-.02.88-.15,1.34-.44.25-.17.46-.36.65-.61l-.08.1-.19.21c.17-.17.34-.36.48-.57l-2.52-.97h0Z"/>
  <path class="st0" d="M11.81,18.55l.15,5.94-1.47-1.2c-1.64,2.67-2.16,5.25-1.39,7.16l.27.67-.67-.29c-1.53-.67-2.92-1.62-4.07-2.83l-.06-.06-.02-.1c-.08-.73-.04-1.53.15-2.35v-.02c.27-1.03.67-2.06,1.18-3.09.31-.65.69-1.3,1.11-1.93l-1.28-1.05,6.11-.84Z"/>
  <path class="st0" d="M22.22,15.55l-.15-5.94,1.47,1.2c1.64-2.67,2.16-5.25,1.39-7.16l-.27-.67.67.29c1.53.67,2.92,1.62,4.07,2.83l.06.06.02.1c.08.73.04,1.53-.15,2.35v.02c-.27,1.03-.67,2.06-1.18,3.09-.31.65-.69,1.3-1.11,1.93l1.28,1.05-6.11.84Z"/>
  <path class="st0" d="M18.57,22.12l5.94-.15-1.2,1.47c2.67,1.64,5.25,2.16,7.16,1.39l.67-.27-.29.67c-.67,1.53-1.62,2.92-2.83,4.07l-.06.06-.1.02c-.73.08-1.53.04-2.35-.15h-.02c-1.03-.27-2.06-.67-3.09-1.18-.65-.31-1.3-.69-1.93-1.11l-1.05,1.28-.84-6.11Z"/>
  <path class="st0" d="M15.55,12.09l-5.94.15,1.2-1.47c-2.67-1.64-5.25-2.16-7.16-1.39l-.65.27.29-.67c.67-1.53,1.62-2.92,2.83-4.07l.06-.06.1-.02c.73-.08,1.53-.04,2.35.15h.02c1.03.27,2.06.67,3.09,1.18.65.31,1.3.69,1.93,1.11l1.05-1.28.82,6.11Z"/>
  <circle class="st1" cx="17.08" cy="16.96" r="12.7"/>
  <path class="st2" d="M12.44,12.49c-.73-.34-1.28-.67-1.83-1.07-.84-.59-1.62-1.24-2.27-1.93-1.6-1.62-2.43-3.27-2.2-4.64l-.48.52c-1.15,1.22-2.69,3.36-2.71,4.28l.02.1c.21.71.55,1.43,1.03,2.12v.02c.63,1.01,1.87,2.67,6.28,4.6l-.78,1.47,5.94-1.6-2.12-5.56-.88,1.68Z"/>
  <path class="st2" d="M21.68,21.72c.73.34,1.28.67,1.83,1.07.84.59,1.62,1.24,2.27,1.93,1.6,1.62,2.43,3.27,2.2,4.64l.48-.5c1.15-1.22,2.69-3.36,2.71-4.28l-.02-.1c-.21-.71-.55-1.43-1.03-2.12v-.02c-.63-1.01-1.87-2.67-6.28-4.6l.78-1.47-5.94,1.6,2.14,5.5.86-1.64Z"/>
  <path class="st2" d="M21.82,12.45c.34-.73.67-1.28,1.07-1.83.59-.84,1.24-1.62,1.93-2.27,1.62-1.6,3.27-2.43,4.64-2.2l-.5-.48c-1.22-1.15-3.36-2.69-4.28-2.71l-.1.02c-.71.21-1.43.55-2.12,1.03h-.02c-1.01.63-2.67,1.87-4.6,6.28l-1.47-.78,1.6,5.94,5.54-2.1-1.68-.9Z"/>
  <path class="st2" d="M12.21,21.66c-.34.73-.67,1.28-1.07,1.83-.59.84-1.24,1.62-1.93,2.27-1.62,1.6-3.27,2.43-4.64,2.2l.5.48c1.22,1.15,3.36,2.69,4.28,2.71l.1-.02c.71-.21,1.43-.55,2.12-1.03h.02c1.01-.63,2.67-1.87,4.6-6.28l1.47.78-1.6-5.94-5.52,2.1,1.66.9Z"/>
</svg>